<svg xmlns="http://www.w3.org/2000/svg" viewBox="0 0 64 64"><defs><style>.cls-2{fill:#008f57}.cls-3{fill:#f7130d}.cls-4{fill:#ffd45d}.cls-5,.cls-8,.cls-9{fill:none}.cls-6{fill:#fff}.cls-8,.cls-9{stroke:#000;stroke-width:2px}.cls-9{stroke-linejoin:round}.cls-8{stroke-miterlimit:10}.cls-9{stroke-linecap:round}</style></defs><g style="isolation:isolate"><g id="Layer_1" data-name="Layer 1"><g id="Vector"><path class="cls-2" d="M54.13 23.24C56 13.77 52.6 10.63 48.85 9.79Q49 10.8 49 12c.95 16.27-7.7 8.75-10.42 6l-.89-1.22a3.48 3.48 0 0 1-2.28.86h-1a14.34 14.34 0 1 1-7.77 1.13l.54-1.4a3.26 3.26 0 0 1-.53-.26S14.4 31.25 15.52 12c.05-.87.12-1.68.21-2.41-9.66 1.26-6 13.27-6 13.27-16.07 10.75.16 19.4.16 19.4-4.14 17.59 12.9 12.27 12.9 12.27 10.6 15.42 18.8 0 18.8 0 15.27 5.14 14.3-12.29 14.3-12.29 13.18-14.54-1.76-19-1.76-19zm-43.2 13.29a3.74 3.74 0 1 1 3.74-3.73 3.73 3.73 0 0 1-3.74 3.73zm5.89 11.18A2.68 2.68 0 1 1 19.5 45a2.68 2.68 0 0 1-2.68 2.71zm14.75 8.46a3.31 3.31 0 1 1 3.3-3.31 3.31 3.31 0 0 1-3.3 3.31zm15.29-7.58a2.68 2.68 0 1 1 2.67-2.67 2.68 2.68 0 0 1-2.67 2.67zM52.74 37a3.08 3.08 0 1 1 3.07-3.08A3.08 3.08 0 0 1 52.74 37z"/><path class="cls-2" d="M39.47 7.6c-.61.9-1 1.56-1 1.56l-.11.6a3.47 3.47 0 0 0-2.93-1.61h-6.92a3.46 3.46 0 0 0-2.44 1s-.38-.66-1-1.57c2.73-3.03 8.05-6.79 14.4.02z"/><path class="cls-3" d="M14.67 32.8a3.74 3.74 0 1 1-3.74-3.74 3.73 3.73 0 0 1 3.74 3.74zM34.87 52.86a3.31 3.31 0 1 1-3.3-3.3 3.31 3.31 0 0 1 3.3 3.3zM55.81 33.87a3.08 3.08 0 1 1-3.07-3.07 3.07 3.07 0 0 1 3.07 3.07z"/><path class="cls-4" d="M19.5 45a2.68 2.68 0 1 1-2.68-2.67A2.68 2.68 0 0 1 19.5 45zM49.53 45.92a2.68 2.68 0 1 1-2.67-2.68 2.67 2.67 0 0 1 2.67 2.68z"/><path class="cls-3" d="M38.91 11.61v2.57a3.22 3.22 0 0 1-.16 1 6 6 0 0 1-.75 1.33l-.06.07v.05c0 .05 0 0 0 0v.05a3.48 3.48 0 0 1-2.28.86h-1.3c-.51-.05-1-.08-1.55-.08s-1 0-1.55.08h-2.75a3.37 3.37 0 0 1-1.24-.23 3.26 3.26 0 0 1-.53-.26 3.47 3.47 0 0 1-1.69-3v-2.44a3.47 3.47 0 0 1 3.46-3.46h6.93a3.47 3.47 0 0 1 3.47 3.46z"/><path class="cls-2" d="M34.14 17.64H31a15.448 15.448 0 0 1 3.14 0zM38.74 15.25a2.75 2.75 0 0 1-.15.36 3.07 3.07 0 0 1-.17.31l-.21.31a3.33 3.33 0 0 1-.25.28 6 6 0 0 0 .78-1.26z"/><path class="cls-3" d="M26.74 17.15S14.4 31.25 15.52 12c.05-.87.12-1.68.21-2.41 1.38-12.17 7-5.37 9.34-2 .62.91 1 1.57 1 1.57a3.46 3.46 0 0 0-1 2.45v2.57a3.47 3.47 0 0 0 1.67 2.97zM31.17 17.64 27.63 32.8l-2.58-4.17-3.35 3.08 5-12.9a14.47 14.47 0 0 1 4.3-1.17zM38.61 18l-.89-1.22v-.1a1.47 1.47 0 0 0 .31-.35l.21-.31a1.34 1.34 0 0 0 .17-.31 2.75 2.75 0 0 0 .15-.36 1.88 1.88 0 0 0 .16-1v-2.74a3.45 3.45 0 0 0-.54-1.85l.11-.6s.38-.66 1-1.56c2.32-3.41 8-10.29 9.38 2.19Q49 10.8 49 12c1 16.25-7.67 8.73-10.39 6z"/><path class="cls-2" d="M38.74 15.25a2.75 2.75 0 0 1-.15.36 3.07 3.07 0 0 1-.17.31l-.21.31a1.47 1.47 0 0 1-.31.35l.06-.07a6 6 0 0 0 .78-1.26z"/><path class="cls-3" d="m43.94 31.71-3.34-3.08L38 32.8l-3.51-15.12A14.31 14.31 0 0 1 39 19.09z"/><path class="cls-5" d="M19.06 18.08a14.87 14.87 0 0 1-.47-3M18.54 12.79c0-.57 0-1.17.07-1.81 0-.46.06-.9.1-1.33"/><ellipse class="cls-6" cx="11.78" cy="30.99" rx=".52" ry=".73" transform="rotate(-48.1 11.78 30.985)"/><ellipse class="cls-6" cx="17.34" cy="44.23" rx=".43" ry=".6" transform="rotate(-48.1 17.343 44.23)"/><ellipse class="cls-6" cx="12.75" cy="32.22" rx=".33" ry=".47" transform="rotate(-30 12.748 32.216)"/><ellipse class="cls-6" cx="32.1" cy="51.5" rx=".52" ry=".73" transform="rotate(-48.1 32.1 51.501)"/><ellipse class="cls-6" cx="33.06" cy="52.74" rx=".33" ry=".47" transform="matrix(.87 -.5 .5 .87 -21.94 23.6)"/><ellipse class="cls-6" cx="53.22" cy="32.53" rx=".52" ry=".73" transform="rotate(-48.1 53.214 32.521)"/><ellipse class="cls-6" cx="54.18" cy="33.76" rx=".33" ry=".47" transform="rotate(-30 54.175 33.756)"/><ellipse class="cls-6" cx="47.47" cy="45.33" rx=".43" ry=".6" transform="rotate(-48.1 47.471 45.328)"/></g><g id="Line"><path d="M46.93 31.9A14.34 14.34 0 1 1 31 17.64c.51-.05 1-.08 1.55-.08s1 0 1.55.08h.35A14.37 14.37 0 0 1 46.93 31.9z" style="stroke-linejoin:round;stroke:#000;stroke-width:2px;fill:none"/><path class="cls-8" d="M2.68 32.22c.15-2.78 2-6 7.09-9.38 0 0-3.7-12 6-13.27-.09.73-.16 1.54-.21 2.41-1.12 19.27 11.22 5.17 11.22 5.17a3.47 3.47 0 0 1-1.69-3v-2.54a3.46 3.46 0 0 1 1-2.45s-.38-.66-1-1.57c2.73-3 8-6.8 14.4 0-.61.9-1 1.56-1 1.56l-.11.6a3.45 3.45 0 0 1 .54 1.85v2.57a3.48 3.48 0 0 1-3.47 3.46h-1A14.31 14.31 0 0 1 39 19.09M4 36.79A8.82 8.82 0 0 1 2.82 34"/><path class="cls-8" d="M49 12q-.08-1.19-.18-2.19c3.75.84 7.19 4 5.28 13.45 0 0 14.94 4.46 1.76 19 0 0 1 17.43-14.3 12.29 0 0-8.2 15.42-18.8 0 0 0-17 5.32-12.86-12.29a19 19 0 0 1-4.81-3.88"/><circle class="cls-8" cx="10.94" cy="32.8" r="3.74"/><circle class="cls-8" cx="31.57" cy="52.87" r="3.3"/><circle class="cls-8" cx="52.74" cy="33.87" r="3.08"/><circle class="cls-8" cx="16.83" cy="45.03" r="2.68"/><circle class="cls-8" cx="46.86" cy="45.92" r="2.68"/><path class="cls-8" d="M38.91 11.61v2.57a3.48 3.48 0 0 1-3.47 3.46h-6.93a3.37 3.37 0 0 1-1.24-.23 3.26 3.26 0 0 1-.53-.26 3.47 3.47 0 0 1-1.69-3v-2.54a3.47 3.47 0 0 1 3.46-3.46h6.93a3.47 3.47 0 0 1 3.47 3.46z"/><path class="cls-8" d="M26.74 17.15S14.4 31.25 15.52 12c.05-.87.12-1.68.21-2.41 1.38-12.17 7-5.37 9.34-2 .62.91 1 1.57 1 1.57a3.46 3.46 0 0 0-1 2.45v2.57a3.47 3.47 0 0 0 1.67 2.97z"/><path class="cls-9" d="M31.17 17.64 27.64 32.8l-2.59-4.17-3.34 3.08 5.56-14.3M38.91 14.18v-2.57a3.45 3.45 0 0 0-.54-1.85l.11-.6s.38-.66 1-1.56c2.32-3.41 8-10.29 9.38 2.19Q49 10.8 49 12c.95 16.27-7.7 8.75-10.42 6l-.89-1.22s1.44-1.48 1.22-2.6zM39.03 19.09l4.91 12.62-3.34-3.08-2.59 4.17-3.52-15.12"/></g><g style="mix-blend-mode:multiply"><path d="M54.13 23.24C56 13.77 52.6 10.63 48.85 9.79c-1.35-12.48-7.06-5.6-9.38-2.19a12.05 12.05 0 0 0-4.94-3.44c-.91 2.3-.64 3.52-.19 4.2s1 .8 1.66 1.64a5.32 5.32 0 0 1 1 3 5.7 5.7 0 0 1-4 4h5c-1 3.41-.6 5.61 0 7s1.86 3.16 2 6v1l.6-2.37 3.34 3.08L39 19.09a14.33 14.33 0 0 1-2.62 26.62c0 .12-.1.29-.19.5-1.28 3.4-2.63 6.89-5.19 8.79a9.76 9.76 0 0 1-6.57 1.68c9.79 11.69 17.16-2.15 17.16-2.15 15.27 5.14 14.3-12.29 14.3-12.29 4.71-3 6.72-8.39 5.13-12.8s-6.29-6.01-6.89-6.2zm-15.38-8a3.22 3.22 0 0 0 .16-1 1.88 1.88 0 0 1-.16.97z" style="opacity:.25" id="Shadow"/></g></g></g></svg>